<svg xmlns="http://www.w3.org/2000/svg" width="1428" height="93" viewBox="0 0 1428 93">
  <g id="Group_1" data-name="Group 1" transform="translate(-1264 -973)" opacity="0.8">
    <path id="Rectangle_23" data-name="Rectangle 23" d="M93,0H238a0,0,0,0,1,0,0V93a0,0,0,0,1,0,0H0a0,0,0,0,1,0,0v0A93,93,0,0,1,93,0Z" transform="translate(1502 973)" fill="#67e0ba"/>
    <path id="Rectangle_44" data-name="Rectangle 44" d="M93,0H238a0,0,0,0,1,0,0V93a0,0,0,0,1,0,0H0a0,0,0,0,1,0,0v0A93,93,0,0,1,93,0Z" transform="translate(1978 973)" fill="#67e0ba"/>
    <path id="Rectangle_46" data-name="Rectangle 46" d="M93,0H238a0,0,0,0,1,0,0V93a0,0,0,0,1,0,0H0a0,0,0,0,1,0,0v0A93,93,0,0,1,93,0Z" transform="translate(2454 973)" fill="#67e0ba"/>
    <path id="Rectangle_34" data-name="Rectangle 34" d="M93,0h0a0,0,0,0,1,0,0V238a0,0,0,0,1,0,0H0a0,0,0,0,1,0,0V93A93,93,0,0,1,93,0Z" transform="translate(1264 1066) rotate(-90)" fill="#67e0ba"/>
    <path id="Rectangle_43" data-name="Rectangle 43" d="M93,0h0a0,0,0,0,1,0,0V238a0,0,0,0,1,0,0H0a0,0,0,0,1,0,0V93A93,93,0,0,1,93,0Z" transform="translate(1740 1066) rotate(-90)" fill="#67e0ba"/>
    <path id="Rectangle_45" data-name="Rectangle 45" d="M93,0h0a0,0,0,0,1,0,0V238a0,0,0,0,1,0,0H0a0,0,0,0,1,0,0V93A93,93,0,0,1,93,0Z" transform="translate(2216 1066) rotate(-90)" fill="#67e0ba"/>
  </g>
</svg>
